<svg width="161" height="70" viewBox="0 0 161 70" fill="none" xmlns="http://www.w3.org/2000/svg">
<path d="M34.156 6.64139C31.064 2.78539 26.9947 0.857394 21.9747 0.857394C16.956 0.857394 12.884 2.78539 9.79333 6.64139C6.70267 10.4987 5.14133 15.4867 5.14133 21.5774C5.14133 27.7294 6.70267 32.7187 9.79333 36.5441C12.884 40.3694 16.956 42.2974 21.9747 42.2974C26.9947 42.2974 31.064 40.3694 34.156 36.5441C37.2467 32.7187 38.808 27.7294 38.808 21.5774C38.808 15.4867 37.2467 10.4987 34.156 6.64139ZM42.1747 30.2081C41.0427 32.9014 39.4813 35.1974 37.5227 37.0641C35.564 38.9307 33.2373 40.4307 30.5133 41.5321C27.82 42.6041 24.9733 43.1547 21.9747 43.1547C15.976 43.1547 10.3453 40.8281 6.396 37.0641C4.43733 35.1974 2.876 32.9014 1.71333 30.2081C0.581333 27.5147 0 24.6374 0 21.5774C0 17.5987 0.980001 13.9561 2.93867 10.6521C4.89733 7.31473 7.55867 4.71339 10.9253 2.84673C14.292 0.949392 17.9653 5.85211e-05 21.9747 5.85211e-05C27.9733 5.85211e-05 33.6053 2.38806 37.5227 6.21339C39.4813 8.11073 41.0427 10.4067 42.1747 13.0681C43.3373 15.7321 43.9187 18.5787 43.9187 21.5774C43.9187 24.6374 43.3373 27.5147 42.1747 30.2081Z" fill="#1C3037"/>
<path d="M91.2008 0.0922623L97.4448 42.3589H92.5475L87.6515 9.21226L70.8475 43.0629L53.1875 9.30426L48.3528 42.3589H47.4648L53.7088 0.0922623L72.8382 36.9723L91.2008 0.0922623Z" fill="#1C3037"/>
<path d="M104.968 0.795189H109.589V42.3578H104.968V0.795189Z" fill="#1C3037"/>
<path d="M150.538 6.64139C147.446 2.78539 143.377 0.857394 138.357 0.857394C133.338 0.857394 129.266 2.78539 126.175 6.64139C123.085 10.4987 121.523 15.4867 121.523 21.5774C121.523 27.7294 123.085 32.7187 126.175 36.5441C129.266 40.3694 133.338 42.2974 138.357 42.2974C143.377 42.2974 147.446 40.3694 150.538 36.5441C153.629 32.7187 155.19 27.7294 155.19 21.5774C155.19 15.4867 153.629 10.4987 150.538 6.64139ZM158.557 30.2081C157.425 32.9014 155.863 35.1974 153.905 37.0641C151.946 38.9307 149.619 40.4307 146.895 41.5321C144.202 42.6041 141.355 43.1547 138.357 43.1547C132.358 43.1547 126.727 40.8281 122.778 37.0641C120.819 35.1974 119.258 32.9014 118.095 30.2081C116.963 27.5147 116.382 24.6374 116.382 21.5774C116.382 17.5987 117.362 13.9561 119.321 10.6521C121.279 7.31473 123.941 4.71339 127.307 2.84673C130.674 0.949392 134.347 5.85211e-05 138.357 5.85211e-05C144.355 5.85211e-05 149.987 2.38806 153.905 6.21339C155.863 8.11073 157.425 10.4067 158.557 13.0681C159.719 15.7321 160.3 18.5787 160.3 21.5774C160.3 24.6374 159.719 27.5147 158.557 30.2081Z" fill="#1C3037"/>
<path d="M39.1731 67.1629H41.9838L40.5784 63.3963L39.1731 67.1629ZM37.3984 69.9936L40.2198 62.8176H40.9864L43.7371 69.9936H43.0398L42.2131 67.7416H38.9438L38.0971 69.9936H37.3984Z" fill="#1C3037"/>
<path d="M50.5244 62.8176H55.7471V63.3963H53.4751V69.9936H52.7964V63.3963H50.5244V62.8176Z" fill="#1C3037"/>
<path d="M64.0977 69.9935V62.8175H68.871V63.3961H64.775V65.9868H68.4737V66.5655H64.775V69.4148H68.971V69.9935H64.0977Z" fill="#1C3037"/>
<path d="M77.5713 69.9935V62.8175H78.2486V69.4148H82.0966V69.9935H77.5713Z" fill="#1C3037"/>
<path d="M90.7354 62.8179H91.4127V69.9938H90.7354V62.8179Z" fill="#1C3037"/>
<path d="M100.652 69.9935V62.8175H105.426V63.3961H101.33V65.9868H105.027V66.5655H101.33V69.4148H105.526V69.9935H100.652Z" fill="#1C3037"/>
<path d="M116.906 66.1563C117.913 66.1563 118.69 65.7376 118.69 64.7309C118.69 63.6549 117.853 63.3963 116.946 63.3963H114.793V66.1563H116.906ZM114.793 66.7349V69.9936H114.115V62.8176H116.926C118.501 62.8176 119.367 63.3763 119.367 64.7016C119.367 65.6083 119.029 66.0869 118.202 66.4549C119.049 66.7443 119.098 67.6416 119.118 68.3989C119.149 69.4856 119.238 69.7843 119.418 69.9243V69.9936H118.67C118.391 69.5056 118.461 68.1603 118.351 67.6109C118.191 66.8336 117.603 66.7349 116.926 66.7349H114.793Z" fill="#1C3037"/>
</svg>
