<?xml version="1.0" encoding="UTF-8" standalone="no"?>
<svg
   xmlns:dc="http://purl.org/dc/elements/1.1/"
   xmlns:cc="http://creativecommons.org/ns#"
   xmlns:rdf="http://www.w3.org/1999/02/22-rdf-syntax-ns#"
   xmlns:svg="http://www.w3.org/2000/svg"
   xmlns="http://www.w3.org/2000/svg"
   viewBox="0 0 793.70135 1122.52"
   height="1122.52"
   width="793.70135"
   xml:space="preserve"
   id="svg2"
   version="1.1"><metadata
     id="metadata8"><rdf:RDF><cc:Work
         rdf:about=""><dc:format>image/svg+xml</dc:format><dc:type
           rdf:resource="http://purl.org/dc/dcmitype/StillImage" /></cc:Work></rdf:RDF></metadata><defs
     id="defs6"><clipPath
       id="clipPath20"
       clipPathUnits="userSpaceOnUse"><path
         id="path18"
         d="M 0,841.89 H 595.276 V 0 H 0 Z" /></clipPath></defs><g
     transform="matrix(1.3333333,0,0,-1.3333333,0,1122.52)"
     id="g10"><path
       id="path12"
       style="fill:#1c3037;fill-opacity:1;fill-rule:nonzero;stroke:none"
       d="m 418.855,310.815 h -241.71 v 220.15 h 241.71 z" /><g
       id="g14"><g
         clip-path="url(#clipPath20)"
         id="g16"><g
           transform="translate(263.5042,449.2234)"
           id="g22"><path
             id="path24"
             style="fill:#ffffff;fill-opacity:1;fill-rule:nonzero;stroke:none"
             d="m 0,0 c -2.319,2.892 -5.371,4.338 -9.136,4.338 -3.764,0 -6.818,-1.446 -9.136,-4.338 -2.318,-2.893 -3.489,-6.634 -3.489,-11.202 0,-4.614 1.171,-8.356 3.489,-11.225 2.318,-2.869 5.372,-4.315 9.136,-4.315 3.765,0 6.817,1.446 9.136,4.315 2.318,2.869 3.489,6.611 3.489,11.225 C 3.489,-6.634 2.318,-2.893 0,0 m 6.014,-17.675 c -0.849,-2.02 -2.02,-3.742 -3.489,-5.142 -1.469,-1.4 -3.214,-2.525 -5.257,-3.351 -2.02,-0.804 -4.155,-1.217 -6.404,-1.217 -4.499,0 -8.722,1.745 -11.684,4.568 -1.469,1.4 -2.64,3.122 -3.512,5.142 -0.849,2.02 -1.285,4.178 -1.285,6.473 0,2.984 0.735,5.716 2.204,8.194 1.469,2.503 3.465,4.454 5.99,5.854 2.525,1.423 5.28,2.135 8.287,2.135 4.499,0 8.723,-1.791 11.661,-4.66 1.469,-1.423 2.64,-3.145 3.489,-5.141 0.872,-1.998 1.308,-4.133 1.308,-6.382 0,-2.295 -0.436,-4.453 -1.308,-6.473" /></g><g
           transform="translate(306.2876,454.1351)"
           id="g26"><path
             id="path28"
             style="fill:#ffffff;fill-opacity:1;fill-rule:nonzero;stroke:none"
             d="M 0,0 4.683,-31.7 H 1.01 L -2.662,-6.84 -15.265,-32.228 -28.51,-6.909 -32.136,-31.7 h -0.666 l 4.683,31.7 14.347,-27.66 z" /></g><path
           id="path30"
           style="fill:#ffffff;fill-opacity:1;fill-rule:nonzero;stroke:none"
           d="m 316.613,453.608 h 3.466 v -31.172 h -3.466 z" /><g
           transform="translate(350.7906,449.2234)"
           id="g32"><path
             id="path34"
             style="fill:#ffffff;fill-opacity:1;fill-rule:nonzero;stroke:none"
             d="m 0,0 c -2.319,2.892 -5.371,4.338 -9.136,4.338 -3.764,0 -6.818,-1.446 -9.136,-4.338 -2.318,-2.893 -3.489,-6.634 -3.489,-11.202 0,-4.614 1.171,-8.356 3.489,-11.225 2.318,-2.869 5.372,-4.315 9.136,-4.315 3.765,0 6.817,1.446 9.136,4.315 2.318,2.869 3.489,6.611 3.489,11.225 C 3.489,-6.634 2.318,-2.893 0,0 m 6.014,-17.675 c -0.849,-2.02 -2.02,-3.742 -3.489,-5.142 -1.469,-1.4 -3.214,-2.525 -5.257,-3.351 -2.02,-0.804 -4.155,-1.217 -6.404,-1.217 -4.499,0 -8.722,1.745 -11.684,4.568 -1.469,1.4 -2.64,3.122 -3.512,5.142 -0.849,2.02 -1.285,4.178 -1.285,6.473 0,2.984 0.735,5.716 2.204,8.194 1.469,2.503 3.465,4.454 5.99,5.854 2.525,1.423 5.28,2.135 8.287,2.135 4.499,0 8.723,-1.791 11.661,-4.66 1.469,-1.423 2.64,-3.145 3.489,-5.141 0.872,-1.998 1.308,-4.133 1.308,-6.382 0,-2.295 -0.436,-4.453 -1.308,-6.473" /></g><g
           transform="translate(267.2673,403.8321)"
           id="g36"><path
             id="path38"
             style="fill:#ffffff;fill-opacity:1;fill-rule:nonzero;stroke:none"
             d="M 0,0 H 2.108 L 1.054,2.825 Z M -1.331,-2.123 0.785,3.259 H 1.36 L 3.423,-2.123 H 2.9 l -0.62,1.689 h -2.452 l -0.635,-1.689 z" /></g><g
           transform="translate(275.7805,407.0912)"
           id="g40"><path
             id="path42"
             style="fill:#ffffff;fill-opacity:1;fill-rule:nonzero;stroke:none"
             d="M 0,0 H 3.917 V -0.434 H 2.213 V -5.382 H 1.704 v 4.948 l -1.704,0 z" /></g><g
           transform="translate(285.9605,401.7093)"
           id="g44"><path
             id="path46"
             style="fill:#ffffff;fill-opacity:1;fill-rule:nonzero;stroke:none"
             d="M 0,0 V 5.382 H 3.58 V 4.948 H 0.508 V 3.005 H 3.282 V 2.571 H 0.508 V 0.434 H 3.655 V 0 Z" /></g><g
           transform="translate(296.0658,401.7093)"
           id="g48"><path
             id="path50"
             style="fill:#ffffff;fill-opacity:1;fill-rule:nonzero;stroke:none"
             d="M 0,0 V 5.382 H 0.508 V 0.434 H 3.394 V 0 Z" /></g><path
           id="path52"
           style="fill:#ffffff;fill-opacity:1;fill-rule:nonzero;stroke:none"
           d="m 305.939,407.091 h 0.508 v -5.382 h -0.508 z" /><g
           transform="translate(313.3763,401.7093)"
           id="g54"><path
             id="path56"
             style="fill:#ffffff;fill-opacity:1;fill-rule:nonzero;stroke:none"
             d="M 0,0 V 5.382 H 3.58 V 4.948 H 0.508 V 3.005 H 3.281 V 2.571 H 0.508 V 0.434 H 3.655 V 0 Z" /></g><g
           transform="translate(325.567,404.5872)"
           id="g58"><path
             id="path60"
             style="fill:#ffffff;fill-opacity:1;fill-rule:nonzero;stroke:none"
             d="M 0,0 C 0.755,0 1.338,0.314 1.338,1.069 1.338,1.876 0.71,2.07 0.03,2.07 H -1.585 V 0 Z m -1.585,-0.434 v -2.444 h -0.508 v 5.382 h 2.108 c 1.181,0 1.831,-0.419 1.831,-1.413 0,-0.68 -0.254,-1.039 -0.874,-1.315 0.635,-0.217 0.672,-0.89 0.687,-1.458 0.023,-0.815 0.09,-1.039 0.225,-1.144 V -2.878 H 1.323 c -0.209,0.366 -0.157,1.375 -0.239,1.787 -0.12,0.583 -0.561,0.657 -1.069,0.657 z" /></g></g></g></g></svg>